<svg width="15" height="15" viewBox="0 0 15 15" fill="none" xmlns="http://www.w3.org/2000/svg">
<path d="M7.5 5.16699C8.78866 5.16699 9.83301 6.21134 9.83301 7.5V11C9.83301 12.2887 8.78866 13.333 7.5 13.333H4C2.71134 13.333 1.66699 12.2887 1.66699 11V7.5C1.66699 6.21134 2.71134 5.16699 4 5.16699H7.5ZM11 1.66699C12.2887 1.66699 13.333 2.71134 13.333 4V7.5C13.333 8.78866 12.2887 9.83301 11 9.83301H10.708V7.125C10.708 5.56019 9.43981 4.29199 7.875 4.29199H5.16699V4C5.16699 2.71134 6.21134 1.66699 7.5 1.66699H11Z" fill="white"/>
</svg>
