<svg width="24" height="24" viewBox="0 0 24 24" fill="none" xmlns="http://www.w3.org/2000/svg">
<path d="M18 2C20.2091 2 22 3.79086 22 6V18C22 20.2091 20.2091 22 18 22H6C3.79086 22 2 20.2091 2 18V6C2 3.79086 3.79086 2 6 2H18ZM10.2871 7.30664C10.0069 7.1906 9.6842 7.25526 9.46973 7.46973L7.46973 9.46973C7.17684 9.76262 7.17684 10.2374 7.46973 10.5303C7.76262 10.8232 8.23738 10.8232 8.53027 10.5303L9.25 9.81055V16C9.25 16.4142 9.58579 16.75 10 16.75C10.4142 16.75 10.75 16.4142 10.75 16V8C10.75 7.69666 10.5674 7.42272 10.2871 7.30664ZM14 7.25C13.5858 7.25 13.25 7.58579 13.25 8V16C13.25 16.3033 13.4326 16.5773 13.7129 16.6934C13.9931 16.8094 14.3158 16.7447 14.5303 16.5303L16.5303 14.5303C16.8232 14.2374 16.8232 13.7626 16.5303 13.4697C16.2374 13.1768 15.7626 13.1768 15.4697 13.4697L14.75 14.1895V8C14.75 7.58579 14.4142 7.25 14 7.25Z" fill="white" fill-opacity="0.4"/>
</svg>
